PathFileType	4	(X/Y/Z)	C:\Users\°ÂÌØÂü\Desktop\20210112\bx_y_10_502-Unnamed.trc
DataRate	CameraRate	NumFrames	NumMarkers	Units	OrigDataRate	OrigDataStartFrame	OrigNumFrames
50.00	50.00	       8	0	mm	50.00	63	       499
Frame#	Time	
		

63	1.240	-681.04633	0.15846	1040.18542	-671.24622	219.85649	1056.35706	-723.08453	285.72540	878.17511	-666.21014	-3.10234	808.85052	-665.05737	217.30844	819.70349	-781.64746	254.06499	638.11566	-739.06879	146.08572	574.01324	-776.60980	249.08400	573.09656	-707.66302	22.16730	524.92218	-809.45154	259.75830	496.17230	-718.82422	207.78627	535.82465	-721.01776	77.47696	218.13202	-716.10156	154.81172	218.85350	-774.23865	224.14481	202.74774	-882.49414	296.15521	144.74011	-675.29333	55.96069	159.12534	-603.67761	19.37082	167.08133	-676.23291	173.60562	158.98848	-595.79053	222.99437	174.41882	-666.87732	299.73309	159.37386	-629.42023	306.62723	161.36224	-561.51575	260.48291	165.67992	-527.99646	303.95172	146.36014	-388.52362	111.24773	1758.17969	-565.80548	286.56967	1494.70068	-763.28284	281.17383	746.77814	-518.17688	-72.34328	142.77328	-797.83813	174.61908	182.24809	-551.51019	-69.61687	1501.00391	-874.69366	100.07581	1075.55737	-770.20044	-5.17041	205.42056	-795.44177	55.49755	173.72571	-799.72479	-32.22422	483.93445	-664.69458	-66.74677	162.87813	-876.52686	-78.92737	141.89952	-769.08978	-46.30474	716.68256	-756.18427	-25.03085	617.43115	-561.81799	-40.37139	163.54123	-623.61334	-77.84590	159.11299				-532.52032	104.15377	1364.04102	-736.77710	83.87804	574.30457	-762.52252	-21.42053	566.46857	-737.65387	-64.16981	870.74817	
64	1.260	-683.91217	0.09175	1039.21448	-674.97784	219.24254	1055.19250	-726.36646	285.53339	878.25690	-669.23444	-3.63577	809.37976	-668.04266	217.46484	819.35730	-783.68652	254.04558	637.81378	-741.22711	145.46443	573.95337	-778.75140	249.38145	572.96735	-709.01514	21.76107	525.20667	-810.94269	260.23276	495.71277	-720.09796	208.34564	536.14777	-721.24792	77.26411	218.29462	-716.38812	154.76208	218.93967	-774.29456	224.53474	202.62724	-882.37628	296.02225	144.68523	-675.87067	55.44175	158.79613	-603.57025	19.42171	166.95743	-676.46429	173.51009	159.50304	-595.99603	222.78403	174.04411	-666.98993	299.64294	159.31996	-628.96844	306.56009	161.32837	-561.61035	260.17764	165.33220	-527.97601	304.02335	146.09912	-378.36075	110.56850	1749.78125	-559.03497	285.81711	1489.94214	-765.93829	281.45740	746.56714	-517.87592	-72.51461	142.89218	-797.95648	174.68941	182.07855	-545.13245	-69.48252	1495.36084	-877.52765	99.79865	1075.86731	-770.53021	-5.27215	205.00829	-795.52289	55.24383	173.85109	-801.24683	-32.17009	483.56036	-664.69458	-66.74677	162.87813	-875.97589	-78.81084	141.28232	-772.44421	-45.61221	715.87012	-758.38477	-25.55064	617.65472	-561.81799	-40.37139	163.54123	-623.63550	-78.12898	159.30598				-529.36810	103.14539	1358.51135	-738.65021	83.56400	574.28668	-764.44397	-21.48154	566.04596	-740.65521	-64.66799	870.95612	
65	1.280	-687.22028	0.17247	1038.31946	-677.63013	219.79100	1053.70813	-729.92279	285.13165	877.43323	-672.27435	-3.46032	808.89258	-671.02057	216.94734	819.15021	-785.54407	254.36842	637.52057	-743.07837	145.86900	573.84839	-780.49451	249.12431	572.44019	-711.06299	21.31125	525.25958	-812.05853	260.25589	494.95218	-722.04065	208.19269	536.14709	-721.53430	76.93171	218.09338	-716.43372	154.84842	218.88181	-774.62091	224.66505	202.64471	-882.42041	296.06781	144.68286	-675.99054	55.48210	158.99748	-603.58313	19.43472	166.99084	-676.23572	173.51799	159.82196	-595.82257	222.81256	174.01689	-667.05176	299.56454	159.47710	-629.11487	306.70169	161.46434	-561.61237	260.26895	165.53505	-528.22394	304.11810	146.32144	-368.21237	109.25379	1741.81531	-552.23901	285.51489	1484.96643	-768.71448	281.94089	746.73645	-517.87592	-72.51461	142.89218	-798.08734	174.76700	181.97964	-538.03217	-70.13637	1489.95178	-880.16315	99.10470	1076.11487	-770.79242	-5.66867	205.19273	-795.95642	54.84525	173.65353	-802.77905	-32.37273	483.29807	-664.76971	-66.95066	162.83578	-875.97589	-78.81084	141.28232	-774.92365	-46.34907	715.32843	-760.30872	-25.65778	617.20789	-561.81799	-40.37139	163.54123	-623.65515	-78.05178	158.95879				-525.88184	102.88933	1353.15137	-740.99994	83.81704	573.86267	-766.71393	-22.00040	566.27356	-743.88379	-64.15947	870.47101	
66	1.300	-690.27289	-0.21895	1037.82983	-681.86932	218.10086	1052.20117	-733.12054	285.69214	877.38342	-675.02649	-3.69983	808.57129	-674.83978	216.99680	819.11877	-788.35095	254.49800	636.74487	-744.78046	145.80354	573.41370	-781.93561	248.93279	572.03357	-713.14630	21.70656	525.06158	-813.86945	260.52576	495.07700	-723.47589	208.06396	536.12823	-721.92633	76.49968	218.13446	-716.58832	154.89224	218.91496	-774.81073	224.84389	202.44164	-882.39105	295.99826	144.61118	-676.22607	55.43757	159.19618	-603.70807	19.57702	167.21342	-676.45160	173.58432	159.56143	-595.76227	222.77722	173.54425	-667.13324	299.79849	159.14063	-629.07959	306.60077	161.37556	-561.70105	260.24066	165.46104	-527.94714	303.84793	146.25449	-358.41837	108.49786	1733.24084	-545.21558	284.69424	1479.90503				-517.97974	-72.54750	143.29048	-798.47247	174.66060	182.05661	-531.37970	-70.47451	1484.07373	-884.19745	99.64057	1077.00684	-771.24146	-5.76213	204.91365	-796.00940	54.68261	173.55283	-804.72803	-32.42723	483.10739	-664.83685	-66.98848	162.84221	-875.52502	-78.09000	141.42914	-777.64984	-46.53721	715.14923	-762.94293	-25.75772	617.10889	-561.98529	-39.94508	163.52708	-623.67590	-78.44432	159.13065				-522.22601	102.97863	1346.34546	-742.91205	83.10559	573.85272	-768.61438	-21.93946	566.31073	-746.80841	-64.62715	870.68579	
67	1.320	-693.07916	-0.52765	1036.57886				-736.79193	285.78989	877.36475	-678.01520	-3.64442	808.41968	-678.10809	217.56984	818.37439	-790.40796	254.44856	636.32758	-747.05011	145.70360	573.38068	-784.29297	249.44284	572.34497	-714.56165	21.09269	525.52887	-815.15857	260.41501	493.91968	-725.16364	207.92303	536.04309	-722.20135	76.61508	218.39696	-716.87909	154.95888	219.27202	-774.64581	224.85081	202.34943	-882.49652	296.18716	144.75172	-676.47260	55.32910	159.34250	-603.91193	19.37260	167.25540	-676.32446	173.68346	159.66396	-595.87939	222.74545	173.89368	-667.16034	299.66620	159.00256	-628.88812	306.45425	161.25439	-561.55933	259.91394	165.29037	-527.92932	303.95483	146.42929	-348.55588	107.77715	1724.33252	-537.98376	284.02924	1474.12878				-517.95935	-72.54546	143.10240	-798.46802	174.87410	182.13966	-524.53375	-70.74243	1477.85388	-886.59271	99.10174	1077.16516	-771.67358	-6.01097	204.86858	-796.14111	54.64793	173.68071	-806.43170	-32.31423	482.52298	-664.85040	-67.05112	162.78938	-875.61414	-78.39626	141.27904	-779.96362	-47.77545	715.68628	-765.21368	-25.70625	617.06708	-561.97046	-39.82656	163.60887	-623.74640	-78.36713	158.70715				-519.69922	102.64415	1339.98621	-745.02606	82.85619	573.78632	-770.75818	-21.58504	565.86884	-749.86469	-64.59301	870.21661	
68	1.340				-779.24695	280.47986	743.73364	-740.68054	285.88605	876.70935	-681.32556	-3.65549	808.01477	-681.46851	217.68916	818.25879	-793.22406	254.20840	635.27344	-749.25366	145.65756	572.93878	-786.29688	249.33922	571.93066	-716.40717	20.98275	525.61072	-816.90613	260.76205	494.18213	-727.06934	207.76773	536.01141	-722.02319	76.16560	218.65062	-716.87909	154.95888	219.27202	-774.87042	224.76917	202.23212	-882.50342	296.22003	144.72592	-676.33148	55.00140	159.76413	-603.97729	19.29082	167.43719	-676.36322	173.54886	159.90562	-595.91760	222.70592	173.71097	-666.76813	299.53934	159.32964	-628.84991	306.56406	161.50096	-561.56213	260.01859	165.29926	-527.78003	304.13330	146.39752	-339.02213	106.70226	1715.45862	-531.50818	283.02502	1468.27417				-517.91510	-72.85001	143.02411	-798.62909	174.68651	181.98788	-518.09241	-70.73164	1471.43518	-889.85638	98.66902	1077.83740	-771.70129	-6.03847	204.80905	-795.87164	54.85144	173.60335	-808.29022	-32.19618	482.27710	-664.76001	-67.20239	162.54420	-875.63715	-78.28986	141.35400	-782.09534	-47.70070	715.07745	-767.36224	-25.54869	616.13507	-562.11249	-39.63170	163.49261	-623.77240	-78.46407	158.97685							-746.13574	83.38342	573.95667	-772.83942	-21.79395	565.73389	-752.76367	-65.07842	870.34497	
69	1.360	-512.70453	101.15478	1327.66443	-782.62744	281.47681	743.97150	-744.87494	285.59827	876.60834	-684.22699	-3.82441	808.31335	-685.38477	217.51443	817.88690	-795.63953	254.17490	634.89569	-750.57971	145.61227	572.90643	-788.34027	249.30188	571.36407	-718.29358	20.93605	525.46655	-818.07007	260.53784	493.69418	-728.83417	207.73721	535.77142	-722.05927	76.09374	218.77307	-716.87646	155.09167	219.43307	-774.92834	224.71751	202.17503	-882.43909	296.10382	144.64621	-676.42682	54.99263	160.22052	-604.11218	19.35313	167.18123	-676.51904	173.53607	159.93559	-595.84998	222.68796	173.78276	-666.88843	299.79794	159.18130	-628.62683	306.33966	161.22935	-561.47992	259.78323	165.26663	-527.73694	303.85562	146.34923	-329.41034	105.72451	1706.18860	-524.85394	281.82013	1461.83398				-517.99023	-72.63893	142.82819	-798.75452	174.92876	182.14659	-511.37601	-70.79937	1464.37708	-892.59155	98.40105	1078.24182	-771.97406	-6.04797	204.47415	-796.08228	54.69479	173.55040	-810.10779	-32.37956	482.26773	-664.84326	-67.16399	162.49382	-876.03320	-78.59757	141.50241				-769.67535	-25.74691	616.23309	-562.10114	-39.42338	163.45465	-623.74640	-78.36713	158.70715							-749.11731	82.51176	572.96289	-774.95508	-22.02440	565.84418	-755.72430	-64.74964	869.57324	
70	1.380	-509.85486	100.53840	1320.80725	-785.56061	282.01926	743.69482	-748.83240	285.80984	875.80145	-687.16180	-3.74206	807.80072	-689.05054	217.64389	817.56592	-798.37042	254.50186	634.34692	-752.99713	145.87447	572.85132	-790.24347	248.38589	570.34229	-719.97711	20.36219	525.58466	-820.32190	260.85693	493.45105	-730.59601	208.04016	536.14752	-722.36346	75.85837	218.88419	-716.76819	155.24515	219.67645	-775.13690	224.69135	201.99355	-882.43549	296.00012	144.61276	-676.50635	54.83417	160.48784	-604.09521	19.44596	167.30156	-676.51904	173.53607	159.93559	-595.91760	222.70592	173.71097	-666.88843	299.79794	159.18130	-628.76959	306.45822	161.42699	-561.47992	259.78323	165.26663	-527.74274	304.19363	146.42384	-320.38385	104.70390	1696.26843	-518.18890	281.25101	1455.31335	-786.49774	-48.46513	714.84509	-518.06433	-72.66947	142.90392	-798.79980	174.98166	182.18263	-504.66544	-70.97902	1457.65869	-895.37933	97.27274	1078.66113	-772.06909	-6.06235	204.30971	-796.27087	54.68720	173.56787	-811.59973	-32.59681	481.47250	-664.75104	-67.45391	162.55501	-876.19427	-78.59859	141.76306				-771.80194	-26.27905	616.24042	-562.11536	-39.29971	163.47696	-623.66949	-78.38563	158.59071							-751.19202	82.49902	572.84283	-777.05383	-21.94035	565.28821	-758.81207	-65.23019	869.99152	
